HIERARCHY
ROOT Hips
{
	OFFSET -3.958830 18.904000 13.208200
	CHANNELS 6 Xposition Yposition Zposition Zrotation Yrotation Xrotation 
	JOINT LHipJoint
	{
		OFFSET 0.000000 0.000000 0.000000
		CHANNELS 3 Zrotation Yrotation Xrotation
		JOINT LeftUpLeg
		{
			OFFSET 1.800000 -1.400000 0.085000
			CHANNELS 3 Zrotation Yrotation Xrotation
			JOINT LeftLeg
			{
				OFFSET 2.215000 -6.000000 0.000000
				CHANNELS 3 Zrotation Yrotation Xrotation
				JOINT LeftFoot
				{
					OFFSET 2.500000 -6.900000 0.000000
					CHANNELS 3 Zrotation Yrotation Xrotation
					JOINT LeftToeBase
					{
						OFFSET 0.200000 -0.500000 1.950000
						CHANNELS 3 Zrotation Yrotation Xrotation
						End Site
						{
							OFFSET 0.000000 0.000000 0.000000
						}
					}
				}
			}
		}
	}
	JOINT RHipJoint
	{
		OFFSET 0.000000 0.000000 0.000000
		CHANNELS 3 Zrotation Yrotation Xrotation
		JOINT RightUpLeg
		{
			OFFSET -1.800000 -1.400000 0.085000
			CHANNELS 3 Zrotation Yrotation Xrotation
			JOINT RightLeg
			{
				OFFSET -2.215000 -6.000000 0.000000
				CHANNELS 3 Zrotation Yrotation Xrotation
				JOINT RightFoot
				{
					OFFSET -2.500000 -6.900000 0.000000
					CHANNELS 3 Zrotation Yrotation Xrotation
					JOINT RightToeBase
					{
						OFFSET -0.200000 -0.500000 1.950000
						CHANNELS 3 Zrotation Yrotation Xrotation
						End Site
						{
							OFFSET 0.000000 0.000000 0.000000
						}
					}
				}
			}
		}
	}
	JOINT LowerBack
	{
		OFFSET 0.000000 0.000000 0.000000
		CHANNELS 3 Zrotation Yrotation Xrotation
		JOINT Spine
		{
			OFFSET -0.087000 1.940000 -0.288900
			CHANNELS 3 Zrotation Yrotation Xrotation
			JOINT Spine1
			{
				OFFSET 0.000000 1.950000 0.060000
				CHANNELS 3 Zrotation Yrotation Xrotation
				JOINT Neck
				{
					OFFSET 0.000000 0.000000 0.000000
					CHANNELS 3 Zrotation Yrotation Xrotation
					JOINT Neck1
					{
						OFFSET 0.000000 1.600000 0.340000
						CHANNELS 3 Zrotation Yrotation Xrotation
						JOINT Head
						{
							OFFSET 0.000000 1.667000 -0.240000
							CHANNELS 3 Zrotation Yrotation Xrotation
							End Site
							{
								OFFSET 0.000000 0.000000 0.000000
							}
						}
					}
				}
				JOINT LeftShoulder
				{
					OFFSET 0.000000 0.000000 0.000000
					CHANNELS 3 Zrotation Yrotation Xrotation
					JOINT LeftArm
					{
						OFFSET 2.700000 1.550000 -0.730000
						CHANNELS 3 Zrotation Yrotation Xrotation
						JOINT LeftForeArm
						{
							OFFSET 5.450000 0.000000 0.000000
							CHANNELS 3 Zrotation Yrotation Xrotation
							JOINT LeftHand
							{
								OFFSET 3.450000 0.000000 0.000000
								CHANNELS 3 Zrotation Yrotation Xrotation
								JOINT LeftHandIndex1
								{
									OFFSET 0.750000 0.000000 0.000000
									CHANNELS 3 Zrotation Yrotation Xrotation
									End Site
									{
										OFFSET 0.000000 0.000000 0.000000
									}
								}
							}
						}
					}
				}
				JOINT RightShoulder
				{
					OFFSET 0.000000 0.000000 0.000000
					CHANNELS 3 Zrotation Yrotation Xrotation
					JOINT RightArm
					{
						OFFSET -2.700000 1.550000 -0.730000
						CHANNELS 3 Zrotation Yrotation Xrotation
						JOINT RightForeArm
						{
							OFFSET -5.450000 0.000000 0.000000
							CHANNELS 3 Zrotation Yrotation Xrotation
							JOINT RightHand
							{
								OFFSET -3.450000 0.000000 0.000000
								CHANNELS 3 Zrotation Yrotation Xrotation
								JOINT RightHandIndex1
								{
									OFFSET -0.750000 0.000000 0.000000
									CHANNELS 3 Zrotation Yrotation Xrotation
									End Site
									{
										OFFSET 0.000000 0.000000 0.000000
									}
								}
							}
						}
					}
				}
			}
		}
	}
}
MOTION
Frames: 12
Frame Time: 0.016667
-2.014650 17.483340 -1.630050 -4.915165 21.375889 -6.098958 -15.158133 12.696083 2.439335 6.863982 -1.222164 -28.344225 8.348765 3.298262 26.434511 -0.358510 3.914904 3.072296 0.197570 0.186540 -0.018480 18.277459 -11.464660 3.156711 -5.020036 2.120980 -7.237031 19.806387 -9.656427 20.128432 -0.478840 -5.638108 2.389984 0.273010 0.288150 0.067330 -4.094781 0.693670 -7.441013 6.410412 6.595163 15.876661 -9.826886 12.909956 18.476684 5.729114 1.383583 -11.050938 -0.301379 -7.174837 41.339738 1.971550 -9.053890 -3.165830 -2.189635 -14.214514 5.409118 -21.183634 -29.433115 12.480072 147.892159 -51.002689 -124.208078 -3.832258 3.289467 -0.021600 0.174310 -0.152660 0.123320 -8.914032 16.868545 4.994056 -3.724425 20.801297 0.908518 -6.024328 26.824421 0.229760 2.168548 -1.515909 -0.103170 0.237660 0.060800 0.045840 
-1.998230 17.455920 -1.624970 -4.975378 20.564869 -6.548938 -15.137642 12.716252 2.404682 7.409410 -1.111016 -28.214415 8.654108 3.441051 28.067125 -0.328263 4.190226 2.967845 0.211780 0.204700 -0.009760 18.296570 -11.461259 3.158133 -5.521567 2.420901 -7.562471 20.383861 -10.215818 21.601993 -0.518699 -5.854971 2.306286 0.288540 0.286050 0.069300 -4.137270 0.687904 -7.454590 6.990916 6.440357 15.855895 -9.511838 12.607472 18.301841 5.422599 1.180590 -10.760665 -0.710489 -6.983883 41.247680 1.600230 -8.835520 -3.245370 -1.650987 -14.637903 5.045048 -18.564858 -30.622186 12.128152 145.183859 -51.300047 -119.540531 -3.852834 3.237251 -0.029510 0.178650 -0.154060 0.126880 -8.888063 17.276102 4.788556 -4.162222 21.623453 0.988785 -6.196309 26.899610 0.196802 2.168429 -1.526615 -0.100630 0.237530 0.054550 0.044790 
-1.979500 17.405110 -1.616560 -4.836657 19.283100 -7.294683 -15.143777 12.793259 2.345392 8.571993 -0.851911 -27.761318 8.861080 3.870198 31.023500 -0.279956 4.749130 2.757690 0.243630 0.243230 0.018690 18.290544 -11.415814 3.141568 -6.356692 2.980936 -8.276373 20.970306 -11.203073 24.512126 -0.593313 -6.240281 2.154941 0.324020 0.281100 0.076440 -4.084241 0.546639 -7.448639 7.002459 6.270717 15.824751 -8.261785 11.996337 18.101966 4.934428 1.132586 -10.201874 -0.773183 -6.828771 40.718307 0.690930 -8.208560 -3.766730 -1.023538 -15.613232 4.419259 -14.339836 -32.818011 11.422222 139.975684 -51.582161 -110.787801 -3.891938 3.109868 -0.035190 0.189710 -0.150710 0.131480 -8.547820 18.134137 4.419625 -4.416718 23.316528 0.976991 -7.460664 27.532620 -0.114747 2.154024 -1.542651 -0.101610 0.244620 0.042910 0.035510 
-1.957760 17.341500 -1.607270 -4.687573 17.708201 -8.363230 -15.154003 12.938206 2.270171 10.027262 -0.543600 -26.836760 9.405695 4.268988 34.309612 -0.191895 5.394392 2.516251 0.262950 0.266290 0.038800 18.278807 -11.342628 3.121144 -7.052196 3.533034 -8.990902 21.134110 -12.409769 28.254940 -0.690639 -6.716136 1.979078 0.339410 0.270550 0.082360 -4.011405 0.247611 -7.455508 7.054295 5.788822 15.745031 -6.760606 10.993522 18.144892 4.176907 0.778516 -9.908045 -1.628348 -6.001674 41.262325 0.105920 -7.331090 -3.709450 0.345112 -16.719425 4.053771 -10.903822 -35.042815 10.581215 132.808613 -52.601528 -100.975700 -3.911379 2.927742 -0.037530 0.194270 -0.144220 0.132140 -8.399293 19.236361 4.248735 -4.228717 24.683533 0.730455 -9.718380 29.068167 -0.665865 2.134461 -1.554277 -0.096420 0.238530 0.032980 0.027810 
-1.939320 17.261400 -1.599460 -4.320321 16.303293 -9.311847 -15.165023 13.078602 2.219498 11.302981 -0.373418 -25.775238 9.899838 4.646498 37.478848 -0.116179 6.035276 2.278115 0.284880 0.287800 0.074040 18.267572 -11.256349 3.099606 -7.670329 4.051398 -9.993581 20.773903 -13.619766 32.346997 -0.799164 -7.212648 1.794602 0.358540 0.249770 0.084770 -3.942296 -0.088784 -7.476724 6.843723 5.039513 15.647832 -5.543541 9.573520 17.932251 3.334069 0.185422 -9.546798 -2.931742 -4.944075 41.946241 -0.849590 -6.207250 -4.047710 1.453003 -18.208875 3.583704 -7.129529 -36.929323 9.190934 123.144132 -55.445263 -90.689816 -3.899968 2.612316 -0.022300 0.193700 -0.130130 0.124640 -7.824804 20.875347 4.017089 -2.935296 26.896489 0.496106 -13.024696 31.196634 -1.646839 2.097232 -1.547085 -0.101370 0.240120 0.025220 0.007030 
-1.919690 17.172680 -1.585620 -3.866684 15.305080 -10.340798 -15.173096 13.232209 2.139732 12.856992 -0.232374 -23.998580 9.713536 5.177490 39.735542 -0.040748 6.562446 2.091573 0.289910 0.290910 0.093400 18.257817 -11.157921 3.091526 -8.342997 4.351077 -10.725870 20.602232 -14.856990 35.856140 -0.908546 -7.723824 1.614034 0.364490 0.242310 0.091630 -3.889946 -0.472306 -7.486250 6.646988 4.081734 15.436346 -4.478869 7.898550 17.937168 2.357842 -0.501562 -9.203105 -4.491081 -3.786000 42.643529 -1.807890 -5.156410 -3.786940 1.701199 -20.315235 3.013006 -4.191374 -39.119679 7.326671 108.373438 -57.759930 -73.207724 -3.768580 2.010174 -0.021670 0.203980 -0.126770 0.117500 -6.155326 23.097622 4.053433 -0.753933 29.033793 -0.169870 -18.637475 34.370372 -3.704580 2.048096 -1.541363 -0.103860 0.234460 0.023720 -0.006010 
-1.893590 17.085970 -1.564970 -3.323003 14.349032 -11.369604 -15.174321 13.405827 2.050162 14.302165 -0.245521 -21.730862 9.628674 5.571019 41.651875 0.036818 7.013024 1.934994 0.304270 0.304690 0.123050 18.252831 -11.070276 3.071379 -8.979830 4.439071 -11.484900 19.977911 -16.028562 39.388112 -1.026291 -8.214925 1.442726 0.370900 0.220750 0.096870 -3.856386 -0.889783 -7.471158 6.491485 2.970923 15.008643 -3.703377 5.970425 17.805518 1.283925 -1.304696 -8.818760 -6.419268 -2.366292 43.653630 -2.614430 -3.975490 -3.782950 1.717553 -22.801850 2.000944 -3.803112 -40.764091 4.474574 88.713890 -61.392430 -53.307873 -3.466930 1.593032 -0.011560 0.202580 -0.110590 0.110840 -4.122327 25.690689 4.396725 3.445810 31.238870 -0.518273 -24.387916 39.585740 -6.606478 1.965440 -1.496505 -0.100900 0.226400 0.013950 -0.021420 
-1.882250 16.990530 -1.547530 -2.489655 12.547885 -12.349510 -15.169944 13.569260 1.982771 15.829819 -0.347980 -19.154948 9.038196 6.200570 43.351301 0.131233 7.455326 1.792637 0.325350 0.336930 0.141800 18.253940 -11.003361 3.020787 -9.462451 4.437078 -12.532333 18.266623 -16.851608 43.428162 -1.134286 -8.684104 1.286293 0.386580 0.212980 0.099800 -3.815919 -1.294405 -7.436163 6.031125 1.983459 14.563652 -3.029795 4.115580 17.779724 -0.068447 -2.398394 -8.505201 -8.833450 -0.642033 44.209307 -2.941930 -2.828750 -3.812680 1.931178 -25.082859 1.087675 -4.052497 -41.650516 2.020681 63.763042 -61.069972 -33.755401 -3.520734 2.185885 -0.016570 0.206070 -0.098810 0.117800 -1.782490 28.418664 4.763542 9.047466 33.790625 -0.334585 -29.197709 47.069272 -10.363127 1.852844 -1.394646 -0.092330 0.225280 -0.003010 -0.022450 
-1.885270 16.885970 -1.519400 -1.640564 9.909958 -13.070120 -15.123089 13.648689 1.986459 18.059018 -0.635173 -16.218332 7.032647 7.522998 44.537676 0.243277 7.909839 1.641819 0.350430 0.375440 0.170820 18.296635 -10.995693 2.924657 -9.485078 4.136160 -13.496349 15.523872 -17.192976 47.588669 -1.238494 -9.072130 1.155637 0.395910 0.185100 0.105040 -3.877254 -1.539302 -7.430748 6.011452 0.815670 13.951805 -3.502641 2.213386 17.828201 -1.293082 -3.552457 -8.828918 -11.267131 1.389586 44.551102 -3.213520 -1.233010 -3.937790 1.647898 -27.442433 0.975800 -3.001158 -41.795864 1.039144 42.891568 -53.362373 -18.380006 -3.666220 2.730104 -0.015780 0.196500 -0.069870 0.123120 0.825363 31.093220 5.455064 17.007636 36.494680 0.807054 -30.680763 56.000555 -13.856170 1.723925 -1.227649 -0.073180 0.209790 -0.030980 -0.024680 
-1.880910 16.771470 -1.485430 -0.930049 7.066051 -13.603548 -15.085690 13.728022 2.059636 20.076290 -1.179782 -13.158352 4.617834 9.001384 45.152329 0.369434 8.340056 1.512065 0.350280 0.383220 0.185410 18.328085 -10.956193 2.811130 -9.243024 3.743335 -14.709742 12.143399 -17.194892 52.110679 -1.337687 -9.462317 1.037121 0.383280 0.168400 0.104920 -3.906477 -1.876644 -7.448095 5.857163 -0.562140 13.293044 -3.991364 0.251917 17.963581 -2.399580 -4.312679 -9.843765 -13.087545 3.580668 44.895566 -3.228710 0.811630 -3.476610 0.697003 -29.531954 1.067874 -2.905519 -40.952899 0.977911 28.892294 -44.227021 -9.344010 -3.738733 2.963651 -0.014770 0.192620 -0.050500 0.124630 3.925988 32.971532 7.134646 26.442387 38.602200 2.151312 -27.274249 62.768004 -14.844698 1.635528 -1.105937 -0.062520 0.191810 -0.050650 -0.028090 
-1.874260 16.649220 -1.465130 -0.201121 4.084321 -13.814670 -15.077635 13.819074 2.205643 21.543299 -1.973396 -10.648695 2.219914 10.398254 45.511792 0.494641 8.731442 1.392851 0.348940 0.382830 0.193750 18.331344 -10.847039 2.708896 -8.708369 3.381293 -16.534069 8.448899 -16.748090 56.576938 -1.432986 -9.788614 0.937040 0.360820 0.141400 0.101540 -3.855494 -2.375722 -7.501076 5.436479 -1.776270 13.078412 -3.301265 -1.474952 17.853072 -3.922108 -5.086000 -11.342007 -15.371537 5.286463 44.760632 -2.750590 2.047440 -3.454240 -0.034987 -30.424058 0.618966 -2.989688 -39.713412 1.692468 17.470744 -33.744245 -3.462904 -3.769109 3.064885 0.007260 0.165680 -0.021740 0.124500 7.656042 33.451810 10.096034 36.066902 38.146266 1.908421 -15.891049 70.508664 -11.926142 1.675140 -1.223827 -0.050750 0.175400 -0.065800 -0.029490 
-1.863360 16.534090 -1.433300 0.478112 1.561700 -13.717151 -15.076828 13.890275 2.339448 22.503305 -2.728894 -8.383093 -0.101943 11.569369 45.063571 0.592543 8.985034 1.319385 0.335710 0.361770 0.199010 18.334036 -10.733332 2.611283 -8.231514 2.973052 -18.511000 4.821023 -16.074914 60.736840 -1.527988 -10.083968 0.848713 0.323080 0.110860 0.092470 -3.810549 -2.839810 -7.512408 5.312487 -3.161657 12.699777 -3.095101 -2.937594 17.259704 -4.764490 -5.915793 -12.905430 -17.920929 7.231888 44.431021 -2.140880 3.356640 -3.604310 -1.974446 -30.005377 1.031487 -4.854266 -37.406883 2.707811 10.332649 -26.848233 -0.930486 -3.777738 3.027006 0.049440 0.125350 0.010880 0.115630 11.338928 32.297193 12.390236 45.388111 35.042621 2.795380 12.079335 73.091418 3.910952 1.927352 -1.664423 -0.046190 0.165250 -0.069300 -0.036720 
